<svg width="34" height="34" viewBox="0 0 34 34" fill="none" xmlns="http://www.w3.org/2000/svg">
<path d="M8.5 2.83334L4.25 8.50001V28.3333C4.25 29.0848 4.54851 29.8055 5.07986 30.3368C5.61122 30.8682 6.33189 31.1667 7.08333 31.1667H26.9167C27.6681 31.1667 28.3888 30.8682 28.9201 30.3368C29.4515 29.8055 29.75 29.0848 29.75 28.3333V8.50001L25.5 2.83334H8.5Z" stroke="#151515" stroke-width="3" stroke-linecap="round" stroke-linejoin="round"/>
<path d="M4.25 8.5H29.75" stroke="#151515" stroke-width="3" stroke-linecap="round" stroke-linejoin="round"/>
<path d="M22.6667 14.1667C22.6667 15.6696 22.0697 17.1109 21.007 18.1736C19.9443 19.2363 18.5029 19.8333 17 19.8333C15.4971 19.8333 14.0558 19.2363 12.9931 18.1736C11.9304 17.1109 11.3334 15.6696 11.3334 14.1667" stroke="#151515" stroke-width="3" stroke-linecap="round" stroke-linejoin="round"/>
</svg>
