<svg width="34" height="34" viewBox="0 0 34 34" fill="none" xmlns="http://www.w3.org/2000/svg">
<path d="M29.5234 6.53083C28.7998 5.80692 27.9407 5.23266 26.9951 4.84086C26.0495 4.44906 25.036 4.24741 24.0125 4.24741C22.989 4.24741 21.9755 4.44906 21.0299 4.84086C20.0844 5.23266 19.2253 5.80692 18.5017 6.53083L17 8.03249L15.4984 6.53083C14.0368 5.06926 12.0545 4.24816 9.98753 4.24816C7.92056 4.24816 5.93826 5.06926 4.47669 6.53083C3.01513 7.99239 2.19403 9.9747 2.19403 12.0417C2.19403 14.1086 3.01513 16.0909 4.47669 17.5525L5.97836 19.0542L17 30.0758L28.0217 19.0542L29.5234 17.5525C30.2473 16.8289 30.8215 15.9698 31.2133 15.0242C31.6051 14.0787 31.8068 13.0652 31.8068 12.0417C31.8068 11.0181 31.6051 10.0046 31.2133 9.05907C30.8215 8.11351 30.2473 7.2544 29.5234 6.53083Z" stroke="#151515" stroke-width="3" stroke-linecap="round" stroke-linejoin="round"/>
</svg>
